<svg xmlns="http://www.w3.org/2000/svg" aria-hidden="true" focusable="false" style="display:none">
  <symbol id="icon-bell" viewBox="0 0 24 24">
    <path d="M12 22a2.5 2.5 0 0 0 2.45-2h-4.9A2.5 2.5 0 0 0 12 22Zm7-6V11a7 7 0 0 0-5-6.71V3a2 2 0 1 0-4 0v1.29A7 7 0 0 0 5 11v5l-1.82 1.82A1 1 0 0 0 4 19h16a1 1 0 0 0 .71-1.71Z" />
  </symbol>
  <symbol id="icon-sun" viewBox="0 0 24 24">
    <path d="M12 4a1 1 0 0 1-1-1V1a1 1 0 1 1 2 0v2a1 1 0 0 1-1 1Zm7.07 3.07a1 1 0 0 0 1.41-1.41l-1.42-1.42a1 1 0 1 0-1.41 1.41ZM23 11h-2a1 1 0 1 0 0 2h2a1 1 0 0 0 0-2Zm-3.52 7.48a1 1 0 1 0-1.41 1.41l1.42 1.42a1 1 0 0 0 1.41-1.41ZM12 20a1 1 0 0 0-1 1v2a1 1 0 1 0 2 0v-2a1 1 0 0 0-1-1Zm-7.07-3.07-1.42 1.42a1 1 0 0 0 1.41 1.41l1.42-1.42a1 1 0 1 0-1.41-1.41ZM4 12a1 1 0 0 0-1-1H1a1 1 0 0 0 0 2h2a1 1 0 0 0 1-1Zm1.52-7.48a1 1 0 0 0-1.41-1.41L2.69 4.53A1 1 0 0 0 4.1 5.94ZM12 7a5 5 0 1 0 5 5 5 5 0 0 0-5-5Z" />
  </symbol>
  <symbol id="icon-moon" viewBox="0 0 24 24">
    <path d="M12.61 2a1 1 0 0 0-1.05.32 9 9 0 1 0 10.12 10.12 1 1 0 0 0-.73-1.25 7 7 0 0 1-5.49-9 1 1 0 0 0-.85-1.16 9 9 0 0 0-1-0.1Z" />
  </symbol>
  <symbol id="icon-user" viewBox="0 0 24 24">
    <path d="M12 12a5 5 0 1 0-5-5 5 5 0 0 0 5 5Zm0 2c-5.33 0-8 2.67-8 6v1a1 1 0 0 0 1 1h14a1 1 0 0 0 1-1v-1c0-3.33-2.67-6-8-6Z" />
  </symbol>
  <symbol id="icon-check" viewBox="0 0 24 24">
    <path d="M9.54 16.54a1 1 0 0 1-1.41 0l-3.18-3.18a1 1 0 0 1 1.41-1.41l2.47 2.47 6.82-6.82a1 1 0 1 1 1.41 1.41Z" />
  </symbol>
  <symbol id="icon-close" viewBox="0 0 24 24">
    <path d="m13.41 12 4.29-4.29a1 1 0 1 0-1.41-1.41L12 10.59 7.71 6.3a1 1 0 0 0-1.41 1.41L10.59 12l-4.29 4.29a1 1 0 1 0 1.41 1.41L12 13.41l4.29 4.29a1 1 0 0 0 1.41-1.41Z" />
  </symbol>
  <symbol id="icon-edit" viewBox="0 0 24 24">
    <path d="m20.71 5.63-2.34-2.34a2.49 2.49 0 0 0-3.52 0L3 15.14V21h5.86l11.37-11.37a2.49 2.49 0 0 0 0-3.5Zm-12 13.71H5v-3.71l8.8-8.83 3.74 3.74Z" />
  </symbol>
  <symbol id="icon-upload" viewBox="0 0 24 24">
    <path d="M12 16a1 1 0 0 0 1-1V8.41l2.29 2.3a1 1 0 1 0 1.42-1.42l-4-4a1 1 0 0 0-1.42 0l-4 4a1 1 0 0 0 1.42 1.42L11 8.41V15a1 1 0 0 0 1 1Zm8-3a1 1 0 0 0-1 1v4H5v-4a1 1 0 0 0-2 0v5a1 1 0 0 0 1 1h16a1 1 0 0 0 1-1v-5a1 1 0 0 0-1-1Z" />
  </symbol>
  <symbol id="icon-flag" viewBox="0 0 24 24">
    <path d="M5 3a1 1 0 0 0-1 1v17a1 1 0 0 0 2 0v-6h8.78l.34 1a2 2 0 0 0 1.89 1.37H20a1 1 0 0 0 1-1V5a2 2 0 0 0-2-2Z" />
  </symbol>
  <symbol id="icon-calendar" viewBox="0 0 24 24">
    <path d="M19 4h-1V3a1 1 0 0 0-2 0v1H8V3a1 1 0 0 0-2 0v1H5a3 3 0 0 0-3 3v13a3 3 0 0 0 3 3h14a3 3 0 0 0 3-3V7a3 3 0 0 0-3-3Zm1 16a1 1 0 0 1-1 1H5a1 1 0 0 1-1-1V11h16Zm0-11H4V7a1 1 0 0 1 1-1h1v1a1 1 0 0 0 2 0V6h8v1a1 1 0 0 0 2 0V6h1a1 1 0 0 1 1 1Z" />
  </symbol>
  <symbol id="icon-clock" viewBox="0 0 24 24">
    <path d="M12 2a10 10 0 1 0 10 10A10 10 0 0 0 12 2Zm0 18a8 8 0 1 1 8-8 8 8 0 0 1-8 8Zm4.24-6.76-3-1.5V7a1 1 0 0 0-2 0v5a1 1 0 0 0 .53.89l3.5 1.75a1 1 0 1 0 .9-1.78Z" />
  </symbol>
  <symbol id="icon-chat" viewBox="0 0 24 24">
    <path d="M21 3H3a2 2 0 0 0-2 2v12a2 2 0 0 0 2 2h3v3.38a.62.62 0 0 0 1 .49L11.62 19H21a2 2 0 0 0 2-2V5a2 2 0 0 0-2-2Zm0 14H11a1 1 0 0 0-.62.21L8 19.38V18a1 1 0 0 0-1-1H3V5h18Z" />
  </symbol>
  <symbol id="icon-info" viewBox="0 0 24 24">
    <path d="M12 2a10 10 0 1 0 10 10A10 10 0 0 0 12 2Zm0 18a8 8 0 1 1 8-8 8 8 0 0 1-8 8Zm-1-9h2v6h-2Zm0-4h2v2h-2Z" />
  </symbol>
  <symbol id="icon-send" viewBox="0 0 24 24">
    <path d="m4.29 21.71 17-8a1 1 0 0 0 0-1.82l-17-8A1 1 0 0 0 3 5v5.59a1 1 0 0 0 .92 1l9.58.76-9.58.76A1 1 0 0 0 3 14v5a1 1 0 0 0 1.29.95Z" />
  </symbol>
  <symbol id="icon-refresh" viewBox="0 0 24 24">
    <path d="M4.93 6.34A10 10 0 0 1 21 12a1 1 0 0 1-2 0 8 8 0 0 0-13-6.27l1.56 1.56a1 1 0 0 1-1.42 1.42L2.29 5.83a1 1 0 0 1 0-1.41l3.83-3.83a1 1 0 1 1 1.42 1.41ZM20 18.17 18.44 16.6a1 1 0 0 0-1.42 1.42l3.83 3.83a1 1 0 0 0 1.42 0l3.83-3.83a1 1 0 0 0-1.42-1.42L22 18.17A10 10 0 0 0 3 12a1 1 0 0 0-2 0 12 12 0 0 0 19 9.38Z" />
  </symbol>
  <symbol id="icon-arrow-right" viewBox="0 0 24 24">
    <path d="M13.17 5.17a1 1 0 0 0 0 1.41L16.59 10H5a1 1 0 0 0 0 2h11.59l-3.42 3.42a1 1 0 0 0 1.41 1.41l5.83-5.83a1 1 0 0 0 0-1.41l-5.83-5.83a1 1 0 0 0-1.41 0Z" />
  </symbol>
</svg>
